<?xml version="1.0" encoding="utf-8"?>
<!-- Generator: Adobe Illustrator 15.0.0, SVG Export Plug-In . SVG Version: 6.00 Build 0)  -->
<!DOCTYPE svg PUBLIC "-//W3C//DTD SVG 1.1//EN" "http://www.w3.org/Graphics/SVG/1.1/DTD/svg11.dtd">
<svg version="1.1" id="Layer_1" xmlns="http://www.w3.org/2000/svg" xmlns:xlink="http://www.w3.org/1999/xlink" x="0px" y="0px"
	 width="500px" height="500px" viewBox="0 0 500 500" enable-background="new 0 0 500 500" xml:space="preserve">
<path fill-rule="evenodd" clip-rule="evenodd" fill="#FFFFFF" d="M362,86c3.19-0.857,3.093,1.574,5,2c-0.838,4.286-0.436,7.59-1,10
	C359.446,99.221,362.831,90.502,362,86z"/>
<path fill-rule="evenodd" clip-rule="evenodd" d="M394,106c-1.161,0.839-2.681,1.319-5,1c1.928-3.266-0.848-3.648-4-3
	c-1.664-3.141,3.719-4.086,1-5C388.188,97.857,393.822,101.81,394,106z"/>
<path fill-rule="evenodd" clip-rule="evenodd" fill="#FFFFFF" d="M343,106c2.826-0.826,2.591,1.409,5,1c0.959,3.371-3.063,6.831,0,9
	c-0.271,3.506-4.428-1.807-4,1C341.712,115.289,343.633,109.367,343,106z"/>
<path fill-rule="evenodd" clip-rule="evenodd" d="M377,107c2.59,1.286,3.143,2.068,2,5c-2.409,0.409-2.174-1.826-5-1
	C374.297,108.964,376.003,108.336,377,107z"/>
<path fill-rule="evenodd" clip-rule="evenodd" d="M382,117C378.315,108.13,392.402,115.507,382,117L382,117z"/>
<path fill-rule="evenodd" clip-rule="evenodd" fill="#FFFFFF" d="M417,115c0.327,5.66-2.937,7.73-3,13c-2.669-0.802-2.221-5.068-3-3
	c-1.495-2.213,1.352-8.61,2-12C415.729,112.271,415.013,114.987,417,115z"/>
<path fill-rule="evenodd" clip-rule="evenodd" d="M368,117c0.729,2.729-1.987,2.013-2,4c-0.761-1.572-3.173-1.494-3-4
	C364.313,115.717,366.687,115.717,368,117z"/>
<path fill-rule="evenodd" clip-rule="evenodd" d="M375,123c1.464,0.87,3.17,1.497,3,4C374.856,129.591,371.443,124.961,375,123z"/>
<path fill-rule="evenodd" clip-rule="evenodd" fill="#FFFFFF" d="M391,130c3.14-0.473,2.642,2.691,5,3
	c-1.428,3.238-2.516,6.817-3,11c-1.44,0.534-2.44-3.897-3-1C386.938,139.219,391.841,134.879,391,130z"/>
<path fill-rule="evenodd" clip-rule="evenodd" d="M206,273c-7.62-18.109,10.882-34.504,28-28
	C225.418,255.085,214.234,262.568,206,273z"/>
<path fill-rule="evenodd" clip-rule="evenodd" d="M237,246c-9.917,9.449-20.25,23.707-31,29
	C216.119,265.119,224.355,253.355,237,246z"/>
<path fill-rule="evenodd" clip-rule="evenodd" d="M208,279c8.54-11.822,21.545-24.416,32-31C229.586,258.586,220.08,270.08,208,279z
	"/>
<path fill-rule="evenodd" clip-rule="evenodd" d="M210,281c8.539-11.797,22.533-23.464,32-31
	C232.429,261.429,222.898,272.898,210,281z"/>
<path fill-rule="evenodd" clip-rule="evenodd" d="M244,252c-9.124,11.543-19.363,21.971-31,31
	C222.084,271.417,232.417,261.084,244,252z"/>
<path fill-rule="evenodd" clip-rule="evenodd" d="M216,285c8.418-10.917,20.749-23.248,30-30C237.25,266.249,227.25,276.249,216,285
	z"/>
<path fill-rule="evenodd" clip-rule="evenodd" d="M246,257c6.837,17.75-5.69,32.796-26,30C224.143,276.427,239.286,268.322,246,257z
	"/>
<path fill-rule="evenodd" clip-rule="evenodd" fill="#FFFFFF" d="M217,289c2.343,1.99,6.363,2.304,11,2
	C225.952,293.438,218.03,293.083,217,289z"/>
<path fill-rule="evenodd" clip-rule="evenodd" d="M418,114c1.2,6.103-2.942,13.98-4,21c-3.154,2.654-5.556-1.849-8-3
	c-1.086,3.581-1.561,7.772-3,11c-3.124,2.624-4.349-3.056-8-3c-0.502,5.165-1.332,10.001-4,13c-5.938,0.703-5.764-6.948-4-11
	c-9.445,2.706-13.49,17.711-23,9c-24.098,25.902-48.065,51.935-72,78c15.282,18.696,24.734,58.875,1,76
	c-9.508,6.859-21.807,7.737-29,18c-7.385,10.534-5.122,24.521-8,40c-7.809,42.009-50.053,85.195-102,59
	c-32.911-16.596-71.494-62.026-70-107c1.303-39.217,28.89-56.951,60-65c13.307-3.443,32.034-2.838,43-10
	c13.172-8.602,13.153-27.155,26-36c15.011-10.335,38.82-6.867,55,3c26.123-23.877,52.723-47.277,76-74
	c-4.808-7.477-4.119-17.627-2-28c2.685-2.391,5.315,1.335,8,2c0.663-4.003,0.63-8.704,2-12c4.365-0.698,4.446,2.887,8,3
	c-0.313-5.647,0.263-10.404,2-14c6.176-0.176,6.666,5.334,6,12c6.916-11.084,23.541-12.459,41-13
	C411.785,93.548,410.651,108.015,418,114z M413,113c-0.648,3.39-3.495,9.787-2,12c0.779-2.068,0.331,2.198,3,3
	c0.063-5.27,3.327-7.34,3-13C415.013,114.987,415.729,112.271,413,113z M249,257c0.237-3.096,2.782-3.884,4-6
	c2.456,3.148,3.983,0.314,6-2c-3.078-0.745-1.922,2.745-5,2c2.13-3.622,6.613-7.655,9-8c-0.779-0.221-1.163-0.837-1-2
	c18.193-14.45,34.964-37.161,49-47c-1.142-1.859,3.942-6.02,7-7c11.917-14.751,30.048-31.951,45-47c2.111,0.889,2.955,3.044,6,3
	c2.197-1.136,3.322-3.344,6-4c0.75-3.417-4.063-1.271-3-5c9.181-9.819,20.469-17.531,30-27c-7.323-3.292-8.468-5.622-10-9
	c-1.166,3.188-5.354-3.726-8-4c0.795-0.111,3.031-3.306,1-3c-0.012,1.009-1.753,1.258-2,0c1.721,0.054,2.563-0.77,3-2
	c-3.56,1.45-5.203,2.208-2-1c-8.068-1.717-11.141,6.834-12,9c2.183-3.067,7.677-11.022,11-4c-9.09,11.244-18.591,22.076-29,32
	c-2.348-0.319-2.238-3.095-4-4c-1.497,1.502-1.789,4.211-4,5c-0.398,4.065,4.256,3.077,5,6c-40.076,35.797-79.397,78.874-117,111
	c0.111-1.889,3.306-0.694,3-3c-3.294-0.706-6.393-1.607-10-2c-1.015,4.682,7.512-0.179,8,3c-17.739-1.121-32.464,6.861-34,25
	c-1.124-3.857,1.795-8.781,0-10c-5.496,8.485,5.46,14.364,0,22c1.891,0.225,2.207-1.127,4-1c-0.013,1.987-2.729,1.271-2,4
	c1.891,0.225,2.207-1.127,4-1c-0.013,1.987-2.729,1.271-2,4c2.503,1.32,3.13-3.953,4-1c-1.704,0.629-1.646,3.021-3,4
	c-20.002-20.004-2.505-59.804,31-50c9.927-9.74,20.519-18.815,30-29c-9.879-4.272-19.813-10.562-35-9
	c-32.358,3.328-26.004,42.02-61,48c-2.123,0.363-5.356,0.783-8,1c-40.616,3.333-73.281,25.5-77,59c-3.766,33.92,13.665,55.925,30,72
	c13.456,13.241,33.685,27.919,54,30c49.689,5.09,75.716-33.71,79-79c1.553-21.412,6.998-31.503,24-40
	c14.572-7.282,25.044-14.044,26-32c0.739-13.889-5.368-24.388-12-33c-7.227,9.546-28.386,21.502-31,33
	c-0.833,3.665,1.443,8.473,1,12c-2.52,20.026-22.664,30.514-44,21c2.081-0.586,3.232-2.102,5-3c15.66,6.352,31.328-5.28,33-22
	c0.33-3.297-3.252-7.173,1-10c-2.169,3.24,0.122,1.87,1,3c-1.196,2.791-1.793,6.733,2,7c-2.82-3.235,0.689-9.279-4-12
	C251.054,255.721,250.23,256.563,249,257z M228,291c-4.637,0.304-8.657-0.01-11-2C218.03,293.083,225.952,293.438,228,291z M230,292
	c16.868-0.41,22.254-15.092,25-24c-0.667,0-1.333,0-2,0c0.003-0.556-0.81-1.135-1,0c-0.451,3.938-2.853,12.647-6,15
	c-0.102-1.122,1.454-1.557,0-2c-2.812,2.092,0.162,3.759-3,5c-0.102-1.122,1.454-1.557,0-2c-1.386,0.613-0.15,3.85-2,4
	C240.2,286.351,232.826,290.924,230,292z M203,255c3.912-9.088,12.351-13.649,23-16C212.535,240.014,204.715,245.8,203,255z M366,98
	c0.564-2.41,0.162-5.714,1-10c-1.907-0.426-1.81-2.857-5-2C362.831,90.502,359.446,99.221,366,98z M356,109
	c0.061-1.933,4.096-12.476-3-12c-0.802,2.582-2.245,9.688,0,12c0.111-0.795,3.306-3.031,3-1C354.444,107.92,355.307,110.908,356,109
	z M363,107c-2.092,1.242-3.759,2.908-5,5c2.632-1.035,3.368-3.965,6-5c0.461-3.237,8.032-8.799,6-8
	C367.051,101.05,364.444,103.444,363,107z M344,117c-0.428-2.807,3.729,2.506,4-1c-3.063-2.169,0.959-5.629,0-9
	c-2.409,0.409-2.174-1.826-5-1C343.633,109.367,341.712,115.289,344,117z M403,136c1.379-4.287,2.743-8.59,4-13
	c-1.907-0.426-1.81-2.857-5-2c0.809,5.803-3.795,8.111-2,12C405.193,130.741,400.793,134.856,403,136z M390,143
	c0.56-2.897,1.56,1.534,3,1c0.484-4.183,1.572-7.762,3-11c-2.358-0.309-1.86-3.473-5-3C391.841,134.879,386.938,139.219,390,143z"/>
<path fill-rule="evenodd" clip-rule="evenodd" fill="#FFFFFF" d="M241,288c1.85-0.15,0.614-3.387,2-4c1.454,0.443-0.102,0.878,0,2
	c3.162-1.241,0.188-2.908,3-5c1.454,0.443-0.102,0.878,0,2c3.147-2.353,5.549-11.063,6-15c0.19-1.135,1.003-0.556,1,0
	c0.667,0,1.333,0,2,0c-2.746,8.908-8.132,23.59-25,24C232.826,290.924,240.2,286.351,241,288z"/>
<path fill-rule="evenodd" clip-rule="evenodd" fill="#FFFFFF" d="M251,254c4.689,2.721,1.18,8.765,4,12
	c-3.793-0.267-3.196-4.209-2-7c-0.878-1.13-3.169,0.24-1-3c-4.252,2.827-0.67,6.703-1,10c-1.672,16.72-17.34,28.352-33,22
	c-1.768,0.898-2.919,2.414-5,3c21.336,9.514,41.48-0.974,44-21c0.443-3.527-1.833-8.335-1-12c2.614-11.498,23.773-23.454,31-33
	c6.632,8.612,12.739,19.111,12,33c-0.956,17.956-11.428,24.718-26,32c-17.002,8.497-22.447,18.588-24,40
	c-3.284,45.29-29.311,84.09-79,79c-20.315-2.081-40.544-16.759-54-30c-16.335-16.075-33.766-38.08-30-72
	c3.719-33.5,36.384-55.667,77-59c2.644-0.217,5.877-0.637,8-1c34.996-5.98,28.642-44.672,61-48c15.187-1.562,25.121,4.728,35,9
	c-9.481,10.185-20.073,19.26-30,29c-33.505-9.804-51.002,29.996-31,50c1.354-0.979,1.296-3.371,3-4c-0.87-2.953-1.497,2.32-4,1
	c-0.729-2.729,1.987-2.013,2-4c-1.793-0.127-2.109,1.225-4,1c-0.729-2.729,1.987-2.013,2-4c-1.793-0.127-2.109,1.225-4,1
	c5.46-7.636-5.496-13.515,0-22c1.795,1.219-1.124,6.143,0,10c1.536-18.139,16.261-26.121,34-25c-0.488-3.179-9.015,1.682-8-3
	c3.607,0.393,6.706,1.294,10,2c0.306,2.306-2.889,1.111-3,3c37.603-32.126,76.924-75.203,117-111c-0.744-2.923-5.398-1.935-5-6
	c2.211-0.789,2.503-3.498,4-5c1.762,0.905,1.652,3.681,4,4c10.409-9.924,19.91-20.756,29-32c-3.323-7.022-8.817,0.933-11,4
	c0.859-2.166,3.932-10.717,12-9c-3.203,3.208-1.56,2.45,2,1c-0.437,1.23-1.279,2.054-3,2c0.247,1.258,1.988,1.009,2,0
	c2.031-0.306-0.205,2.889-1,3c2.646,0.274,6.834,7.188,8,4c1.532,3.378,2.677,5.708,10,9c-9.531,9.469-20.819,17.181-30,27
	c-1.063,3.729,3.75,1.583,3,5c-2.678,0.656-3.803,2.864-6,4c-3.045,0.044-3.889-2.111-6-3c-14.952,15.049-33.083,32.249-45,47
	c-3.058,0.98-8.142,5.141-7,7c-14.036,9.839-30.807,32.55-49,47c-0.163,1.163,0.221,1.779,1,2c-2.387,0.345-6.87,4.378-9,8
	c3.078,0.745,1.922-2.745,5-2c-2.017,2.314-3.544,5.148-6,2c-1.218,2.116-3.763,2.904-4,6C250.23,256.563,251.054,255.721,251,254z
	 M353,133c-29.729,26.688-59.229,56.229-87,84c-9.348,9.348-20.888,16.682-27,28C276.555,207.223,315.085,170.418,353,133z M242,246
	c37.631-37.369,75.952-74.048,113-112C317.33,171.004,275.802,208.972,242,246z M292,200c-16.539,16.407-35.163,31.562-48,49
	c31.412-33.254,68.438-66.228,97-99C325.017,166.253,308.642,183.492,292,200z M245,251c38.972-37.028,76.258-75.743,114-114
	C320.514,174.514,282.451,212.452,245,251z M299,201c-17.675,17.627-37.263,34.07-51,53c17.637-16.979,34.353-36.115,52-54
	c17.532-17.769,37.374-33.959,51-53C334.407,164.998,316.786,183.261,299,201z M206,275c10.75-5.293,21.083-19.551,31-29
	C224.355,253.355,216.119,265.119,206,275z M240,248c-10.455,6.584-23.46,19.178-32,31C220.08,270.08,229.586,258.586,240,248z
	 M242,250c-9.467,7.536-23.461,19.203-32,31C222.898,272.898,232.429,261.429,242,250z M213,283c11.637-9.029,21.876-19.457,31-31
	C232.417,261.084,222.084,271.417,213,283z M246,255c-9.251,6.752-21.582,19.083-30,30C227.25,276.249,237.25,266.249,246,255z
	 M220,287c20.31,2.796,32.837-12.25,26-30C239.286,268.322,224.143,276.427,220,287z M234,245c-17.118-6.504-35.62,9.891-28,28
	C214.234,262.568,225.418,255.085,234,245z M215,287c-2.333-0.855-4.309,3.497-5,1c0.239-1.427,1.646-1.687,2-3
	c-2.322,0.345-4.686,0.647-4,4C211.677,291.152,212.98,290.692,215,287z M158,323c-2.358-2.447-1.86,1.493-5,1
	c0.013-1.987,2.729-1.271,2-4c-6.588-5.078-11.412-11.922-18-17c-1.724,3.276-5.276,4.724-7,8c10.742,10.737,20.114,20.113,32,32
	c6.06,6.06,13.784,18.185,18,18c1.839-0.08,7.021-7.429,7-8c0.006,0.167-15.625-16.557-18-17c-1.824-0.341-1.944,3.076-1-3
	c-3.236-1.235-0.764,3.235-4,2c0.013-1.987,2.729-1.271,2-4c-3.141-1.664-4.086,3.719-5,1c1.759-0.241,2.279-1.721,2-4
	c-2.503-1.32-3.13,3.953-4,1c0.314-1.352,1.423-1.91,1-4C155.091,326.377,156.624,327.908,158,323z M386,99
	c2.719,0.914-2.664,1.859-1,5c3.152-0.648,5.928-0.266,4,3c2.319,0.319,3.839-0.161,5-1C393.822,101.81,388.188,97.857,386,99z
	 M360,138c-0.933,3.435-8.324,5.63-6,9C354.521,143.154,362.467,141.512,360,138z M374,111c2.826-0.826,2.591,1.409,5,1
	c1.143-2.932,0.59-3.714-2-5C376.003,108.336,374.297,108.964,374,111z M382,117C392.402,115.507,378.315,108.13,382,117L382,117z
	 M363,117c-0.173,2.506,2.239,2.428,3,4c0.013-1.987,2.729-1.271,2-4C366.687,115.717,364.313,115.717,363,117z M378,127
	c0.17-2.503-1.536-3.13-3-4C371.443,124.961,374.856,129.591,378,127z"/>
<path fill-rule="evenodd" clip-rule="evenodd" fill="#FFFFFF" d="M226,239c-10.649,2.351-19.088,6.912-23,16
	C204.715,245.8,212.535,240.014,226,239z"/>
<path fill-rule="evenodd" clip-rule="evenodd" d="M354,147c-2.324-3.37,5.067-5.565,6-9C362.467,141.512,354.521,143.154,354,147z"
	/>
<path fill-rule="evenodd" clip-rule="evenodd" d="M351,147c-13.626,19.041-33.468,35.231-51,53c-17.647,17.885-34.363,37.021-52,54
	c13.737-18.93,33.325-35.373,51-53C316.786,183.261,334.407,164.998,351,147z"/>
<path fill-rule="evenodd" clip-rule="evenodd" d="M359,137c-37.742,38.257-75.028,76.972-114,114
	C282.451,212.452,320.514,174.514,359,137z"/>
<path fill-rule="evenodd" clip-rule="evenodd" d="M239,245c6.112-11.318,17.652-18.652,27-28c27.771-27.771,57.271-57.313,87-84
	C315.085,170.418,276.555,207.223,239,245z"/>
<path fill-rule="evenodd" clip-rule="evenodd" fill="#FFFFFF" d="M356,108c0.306-2.031-2.889,0.205-3,1
	c-2.245-2.312-0.802-9.418,0-12c7.096-0.476,3.061,10.067,3,12C355.307,110.908,354.444,107.92,356,108z"/>
<path fill-rule="evenodd" clip-rule="evenodd" fill="#FFFFFF" d="M370,99c2.032-0.799-5.539,4.763-6,8c-2.632,1.035-3.368,3.965-6,5
	c1.241-2.092,2.908-3.758,5-5C364.444,103.444,367.051,101.05,370,99z"/>
<path fill-rule="evenodd" clip-rule="evenodd" fill="#FFFFFF" d="M400,133c-1.795-3.889,2.809-6.197,2-12
	c3.19-0.857,3.093,1.574,5,2c-1.257,4.41-2.621,8.713-4,13C400.793,134.856,405.193,130.741,400,133z"/>
<path fill-rule="evenodd" clip-rule="evenodd" d="M341,150c-28.562,32.772-65.588,65.746-97,99c12.837-17.438,31.461-32.593,48-49
	C308.642,183.492,325.017,166.253,341,150z"/>
<path fill-rule="evenodd" clip-rule="evenodd" d="M355,134c-37.048,37.952-75.369,74.631-113,112
	C275.802,208.972,317.33,171.004,355,134z"/>
<path fill-rule="evenodd" clip-rule="evenodd" d="M208,289c-0.686-3.353,1.678-3.655,4-4c-0.354,1.313-1.761,1.573-2,3
	c0.691,2.497,2.667-1.855,5-1C212.98,290.692,211.677,291.152,208,289z"/>
<path fill-rule="evenodd" clip-rule="evenodd" d="M160,325c0.423,2.09-0.686,2.648-1,4c0.87,2.953,1.497-2.32,4-1
	c0.279,2.279-0.241,3.759-2,4c0.914,2.719,1.859-2.664,5-1c0.729,2.729-1.987,2.013-2,4c3.236,1.235,0.764-3.235,4-2
	c-0.944,6.076-0.824,2.659,1,3c2.375,0.443,18.006,17.167,18,17c0.021,0.571-5.161,7.92-7,8c-4.216,0.185-11.94-11.94-18-18
	c-11.886-11.887-21.258-21.263-32-32c1.724-3.276,5.276-4.724,7-8c6.588,5.078,11.412,11.922,18,17c0.729,2.729-1.987,2.013-2,4
	c3.14,0.493,2.642-3.447,5-1C156.624,327.908,155.091,326.377,160,325z"/>
</svg>
