<?xml version="1.0" encoding="iso-8859-1"?>
<!-- Generator: Adobe Illustrator 16.0.0, SVG Export Plug-In . SVG Version: 6.00 Build 0)  -->
<!DOCTYPE svg PUBLIC "-//W3C//DTD SVG 1.1//EN" "http://www.w3.org/Graphics/SVG/1.1/DTD/svg11.dtd">
<svg version="1.1" id="Capa_1" xmlns="http://www.w3.org/2000/svg" xmlns:xlink="http://www.w3.org/1999/xlink" x="0px" y="0px"
	 width="948.132px" height="948.132px" viewBox="0 0 948.132 948.132" style="enable-background:new 0 0 948.132 948.132;"
	 xml:space="preserve">
<g>
	<path d="M917.344,94.56c-2.6-10-12.899-16-22.899-13.4l-37.601,9.9c-10,2.6-16,12.9-13.399,22.9l15.5,59.1
		c0,0-106-33.4-126.601-38.1c9.9-14.7,15.5-32.5,14.7-51.7c-1.7-44.2-37.3-80.3-81.5-82.6c-49.7-2.6-90.9,36.9-90.9,86.1
		c0,9.9,1.7,19.5,4.801,28.3l-26.801-1.7c-18.6-1.2-37.199,1.8-54.399,8.7l-109.401,43.9c-9.7,3.9-14.399,14.9-10.5,24.6l14.3,35.7
		c3.9,9.7,14.9,14.4,24.601,10.5l79-31.7c24.8-10,51.8-13.3,78.399-9.7l75.5,10.2l35.801,227.1l-168.101,24.5
		c-31,4.5-57.4,25.4-68.9,54.599l-49.7,126.4c-58.101,9.1-110,27.7-151.5,54c-3.4,2.1-17.4-4-21.2-4.8c-8.4-1.8-16.8-3.3-25.3-4.3
		c-17-2.101-34.2-2.601-51.3-1.601c-34.2,2.101-68.1,10.3-99.4,24.3c-15.5,7-29.8,15.4-43.7,25.2c-1.9,1.3-3.7,2.7-5.5,4.101
		c-1,0.8-1.5,2.1-1.3,3.3c0.1,0.899,0.7,2,1.7,1.7c3-0.601,6.7-1.301,11-2.2c90.8-14.4,176,12.5,254.7,53.1
		c56.8,29.3,109.8,65.101,165.9,95.601c82,44.6,171.601,78.199,267.5,51.6c5.7-1.6,10.8-3,15.2-4.4c4.4-1.6,8.1-3.1,11.1-4.199
		l0.2-0.101c2-0.8,2.3-4.899,0.4-5.1h-0.2c-0.2,0-0.5-0.101-0.7-0.101c-2.8-0.399-6.1-0.899-9.899-1.399
		c-26-3.2-51.301-9.9-75.9-18.9c-19.5-7.2-38.6-15.899-57.3-25.6c-2.3-1.2-4.601-2.4-6.9-3.601c29,4.101,57.5,6.101,85.3,6.101
		c92.101,0,175-22,235.7-60.4c3-1.899,3.7-5.899,1.6-8.7c-32.6-43.5-80.5-82.699-139.199-113.399l-1.2-4.601
		c-1.8-7.3-1.3-14.699,1.3-21.5c1.3-3.3,3-6.399,5.2-9.199l8.1-10.4l25.2-32.2c44.3-56.5,63.8-128.3,54.8-199
		c-0.399,8.8-1.6,18-3.899,27.4c-10.9,44.399-43.9,78-82.301,100.5c-24.399,14.3-51.3,25-78.6,32.5c-4.5,10.3-29.9,75.3-30,75.699
		c-21-6.199-42.7-11.5-65.1-15.6c-28-5.1-55.7-8.3-82.801-9.5l29.7-75.6c56.101-6.601,113.2-10.7,168.8-20.8
		c51.101-9.301,106.9-41.301,126.601-91.4c20.8-52.8-0.4-113.5-11.4-166.7c-2.399-11.8-4.899-23.7-7.3-35.5l70.3,21.3
		c35.101,10.6,68.2-21.3,58.9-56.7L917.344,94.56z"/>
</g>
<g>
</g>
<g>
</g>
<g>
</g>
<g>
</g>
<g>
</g>
<g>
</g>
<g>
</g>
<g>
</g>
<g>
</g>
<g>
</g>
<g>
</g>
<g>
</g>
<g>
</g>
<g>
</g>
<g>
</g>
</svg>
